<?xml version="1.0" standalone="no"?>
<!DOCTYPE svg PUBLIC "-//W3C//DTD SVG 20010904//EN"
 "http://www.w3.org/TR/2001/REC-SVG-20010904/DTD/svg10.dtd">
<svg version="1.0" xmlns="http://www.w3.org/2000/svg"
 width="1024.000000pt" height="1024.000000pt" viewBox="0 0 1024.000000 1024.000000"
 preserveAspectRatio="xMidYMid meet">
<metadata>
Created by potrace 1.11, written by Peter Selinger 2001-2013
</metadata>
<g transform="translate(0.000000,1024.000000) scale(0.100000,-0.100000)"
fill="#000000" stroke="none">
<path d="M4865 9594 c-22 -2 -96 -8 -165 -14 -168 -14 -454 -62 -631 -105
-802 -197 -1522 -599 -2100 -1175 -741 -738 -1173 -1625 -1306 -2680 -25 -201
-25 -746 0 -965 86 -743 320 -1396 714 -1995 443 -672 1051 -1208 1768 -1560
489 -239 975 -379 1545 -442 175 -19 709 -16 890 5 758 89 1402 323 2020 732
568 376 1064 905 1405 1500 420 731 629 1584 586 2390 -30 561 -123 1009 -306
1471 -180 453 -417 856 -720 1219 -542 650 -1239 1130 -2022 1391 -305 102
-631 174 -953 210 -126 14 -634 27 -725 18z m535 -644 c838 -64 1599 -383
2247 -943 346 -300 692 -745 901 -1164 204 -405 338 -869 387 -1338 22 -202
25 -614 7 -775 -102 -885 -459 -1647 -1070 -2282 -559 -580 -1313 -978 -2109
-1113 -730 -123 -1472 -36 -2148 252 -1232 525 -2111 1668 -2295 2983 -45 324
-52 755 -15 1030 157 1188 837 2216 1870 2830 296 175 670 330 1004 415 186
47 508 97 691 108 133 8 406 6 530 -3z"/>
<path d="M6560 7526 c-170 -45 -171 -46 -641 -515 -484 -484 -474 -471 -474
-611 0 -100 23 -159 90 -225 66 -67 125 -90 225 -90 139 0 146 6 576 448 202
208 370 376 374 375 16 -6 485 -522 485 -533 0 -13 -1711 -1785 -1724 -1785
-4 0 -95 96 -202 213 -231 250 -256 268 -386 275 -75 4 -87 2 -146 -25 -35
-17 -80 -46 -99 -66 -93 -93 -118 -257 -59 -380 29 -60 464 -561 541 -624 36
-30 103 -72 149 -95 81 -41 86 -43 180 -42 75 0 108 5 152 22 86 34 175 96
268 186 140 136 1818 1899 1852 1946 80 110 120 240 120 385 0 152 -43 283
-126 391 -60 76 -560 600 -617 645 -147 116 -349 156 -538 105z"/>
<path d="M4684 6380 c-65 -21 -160 -78 -238 -144 -40 -32 -757 -779 -1871
-1946 -138 -145 -199 -286 -199 -460 0 -117 14 -181 66 -290 40 -83 47 -91
352 -393 401 -398 456 -434 677 -444 177 -9 303 26 430 118 26 19 227 212 447
429 460 453 458 450 456 595 -1 127 -54 215 -164 274 -108 58 -231 52 -328
-14 -19 -13 -205 -191 -413 -395 -345 -338 -380 -370 -397 -358 -11 7 -125
117 -255 243 l-236 230 896 903 896 903 226 -224 c258 -255 278 -268 401 -271
66 -1 83 3 142 32 120 59 182 160 183 298 0 126 -25 166 -285 445 -238 256
-324 340 -408 396 -131 86 -260 112 -378 73z"/>
</g>
</svg>
