<?xml version="1.0" standalone="no"?>
<!DOCTYPE svg PUBLIC "-//W3C//DTD SVG 20010904//EN"
 "http://www.w3.org/TR/2001/REC-SVG-20010904/DTD/svg10.dtd">
<svg version="1.0" xmlns="http://www.w3.org/2000/svg"
 width="1024.000000pt" height="1024.000000pt" viewBox="0 0 1024.000000 1024.000000"
 preserveAspectRatio="xMidYMid meet">
<metadata>
Created by potrace 1.11, written by Peter Selinger 2001-2013
</metadata>
<g transform="translate(0.000000,1024.000000) scale(0.100000,-0.100000)"
fill="#000000" stroke="none">
<path d="M4830 10170 c-1250 -84 -2380 -593 -3261 -1470 -415 -414 -725 -846
-979 -1365 -266 -545 -422 -1095 -492 -1730 -18 -163 -18 -827 0 -990 94 -862
364 -1616 825 -2310 316 -476 732 -915 1191 -1258 567 -423 1241 -733 1914
-882 1011 -223 2032 -143 2981 232 972 384 1814 1072 2383 1948 440 678 701
1411 795 2237 25 218 25 838 0 1056 -135 1183 -633 2228 -1452 3047 -417 418
-849 727 -1370 981 -552 268 -1093 422 -1725 489 -173 18 -635 27 -810 15z
m870 -259 c964 -119 1815 -486 2555 -1102 128 -107 401 -374 520 -509 271
-309 516 -672 699 -1037 250 -500 413 -1055 483 -1638 22 -189 25 -821 5
-1010 -67 -613 -225 -1163 -487 -1684 -384 -768 -970 -1426 -1686 -1894 -592
-387 -1248 -635 -1944 -736 -218 -32 -332 -41 -585 -48 -1208 -31 -2386 395
-3294 1191 -924 809 -1495 1908 -1632 3141 -22 196 -30 644 -15 846 112 1527
899 2876 2166 3714 682 451 1442 712 2285 784 184 16 742 5 930 -18z"/>
<path d="M5310 9034 c-228 -27 -611 -118 -675 -160 -66 -43 -88 -149 -45 -219
42 -68 149 -99 251 -74 282 69 786 -127 1080 -420 203 -204 262 -370 190 -540
-53 -125 -64 -231 -35 -351 l15 -64 -445 -445 -444 -444 -59 51 -59 51 -55
-55 -55 -55 -305 287 c-167 158 -305 292 -307 298 -1 6 43 211 98 456 140 616
132 575 119 623 -15 56 -47 83 -240 207 -90 57 -393 252 -674 433 -280 181
-524 336 -542 343 -52 22 -105 18 -149 -13 -21 -16 -132 -123 -246 -238 -222
-226 -229 -237 -213 -323 6 -32 56 -86 389 -422 l383 -385 -51 -180 -51 -180
-180 -52 -180 -52 -380 378 c-410 409 -415 413 -501 396 -39 -7 -112 -73 -381
-342 -102 -102 -123 -144 -105 -213 11 -46 943 -1392 984 -1421 50 -36 88 -33
393 25 160 30 387 74 505 96 l215 41 69 -73 c38 -40 127 -134 197 -209 l129
-137 -55 -47 c-30 -25 -55 -52 -55 -59 0 -6 23 -34 50 -61 28 -27 49 -52 48
-55 -3 -5 -213 -207 -1489 -1432 -458 -440 -750 -727 -772 -760 -58 -88 -80
-168 -74 -267 4 -72 11 -95 45 -165 43 -85 142 -205 301 -361 l81 -79 -52 -53
-52 -53 139 -138 c77 -76 161 -152 186 -170 74 -50 179 -99 259 -121 93 -26
254 -28 344 -5 84 22 188 78 254 138 30 28 337 348 681 711 1177 1241 1372
1445 1381 1445 5 0 235 -242 512 -537 1727 -1845 1598 -1713 1774 -1802 135
-68 216 -86 379 -85 152 0 214 12 338 65 262 111 473 362 544 646 26 104 23
305 -5 406 -29 101 -82 209 -146 294 -45 60 -721 703 -2163 2060 -161 151
-293 278 -293 281 0 4 175 182 388 395 l388 388 75 -21 c106 -30 243 -36 352
-16 86 17 88 16 117 -4 16 -11 38 -34 50 -49 20 -29 20 -29 1 -72 -31 -71 -44
-162 -38 -262 14 -235 155 -441 372 -547 195 -95 409 -88 582 17 80 48 639
602 694 686 66 101 84 172 84 322 -1 109 -4 140 -24 195 -89 256 -312 431
-571 449 l-95 6 -40 81 c-22 44 -61 125 -87 180 -96 202 -241 395 -482 642
l-150 153 -53 -53 -53 -52 -320 326 c-176 179 -355 356 -398 392 -286 238
-616 381 -996 431 -144 19 -436 18 -596 -1z m668 -179 c280 -49 516 -151 750
-324 48 -36 175 -154 285 -265 459 -465 797 -817 864 -901 92 -115 166 -239
233 -390 80 -181 117 -238 289 -446 20 -25 22 -31 10 -45 -10 -12 -1 -10 31 7
91 47 203 26 276 -53 95 -100 86 -222 -22 -317 l-36 -32 -24 22 -23 22 40 45
c22 25 38 51 37 57 -2 6 -49 53 -106 104 l-103 94 -38 -12 c-109 -32 -161 -1
-292 173 -73 96 -122 181 -179 306 -101 221 -75 192 -822 936 l-683 681 -105
51 c-58 28 -159 69 -224 90 l-118 39 -86 87 c-99 98 -99 97 46 71z m-2537
-288 c206 -133 510 -330 677 -437 l303 -195 -6 -37 c-3 -20 -57 -261 -120
-536 -63 -275 -115 -507 -115 -516 0 -8 153 -160 340 -337 234 -222 337 -326
330 -333 -7 -7 7 -28 45 -66 l56 -56 -109 -101 -109 -102 -44 11 c-68 15 -205
5 -272 -22 -33 -12 -83 -41 -112 -65 l-52 -43 -51 57 -50 56 -42 -40 -42 -40
-41 46 c-23 26 -125 135 -227 243 -162 173 -188 196 -210 192 -155 -31 -1039
-196 -1047 -196 -6 0 -123 159 -259 353 -137 193 -344 487 -461 652 l-214 299
186 186 185 185 395 -395 c217 -217 399 -396 404 -398 8 -3 530 143 537 150 1
2 37 124 79 272 l77 269 -398 398 -399 399 55 57 c123 130 325 333 331 333 4
0 175 -109 380 -243z m2966 -1076 c-9 -27 -17 -70 -17 -97 l0 -48 327 -328
c372 -373 360 -364 497 -356 l84 6 68 -69 68 -69 -44 0 c-25 0 -70 -7 -100
-15 -30 -8 -87 -15 -126 -15 -106 0 -182 30 -311 125 -10 8 -194 -171 -781
-757 l-767 -768 -270 270 -270 270 625 627 c884 888 901 905 896 917 -49 109
-56 135 -56 209 0 65 5 90 29 145 16 37 33 80 37 96 l7 28 61 -61 61 -61 -18
-49z m-1749 -2025 c15 -8 39 -27 54 -43 l28 -29 -116 -114 c-64 -63 -452 -459
-862 -880 -411 -421 -946 -967 -1190 -1214 l-443 -449 29 -31 c65 -71 51 -66
-33 13 -99 91 -125 130 -133 196 -7 62 4 108 36 147 58 71 2431 2385 2463
2401 42 20 131 22 167 3z m2477 -1432 c610 -577 1123 -1064 1140 -1083 89
-100 126 -188 133 -317 5 -115 -9 -184 -61 -287 -50 -100 -160 -216 -252 -264
-179 -94 -375 -89 -542 14 -97 60 44 -87 -1457 1512 l-708 754 41 41 c28 29
38 45 31 52 -7 7 11 27 56 64 36 29 77 68 91 86 30 41 83 186 83 232 0 17 3
32 8 33 4 0 16 2 27 4 18 4 51 9 134 20 26 4 38 17 47 53 5 18 -1 32 -26 57
l-33 34 42 11 c38 10 41 13 43 48 0 20 0 46 -1 57 -1 15 9 10 46 -26 26 -25
547 -518 1158 -1095z"/>
<path d="M7755 2813 c-56 -30 -96 -66 -122 -110 -19 -33 -23 -47 -14 -56 6 -6
11 -47 11 -102 0 -74 4 -99 23 -135 54 -107 204 -141 328 -74 188 103 179 380
-15 470 -62 29 -164 32 -211 7z"/>
</g>
</svg>
